<svg xmlns="http://www.w3.org/2000/svg" viewBox="0 0 528 343" role="img" aria-label="Letter A as a filled normal distribution">
  <title>Normal-distribution A mark</title>
  <path fill-rule="evenodd" fill="#D97757" d="M 25.24,317.85 C 24.20,316.53 24.00,312.43 24.83,309.45 C 25.44,307.26 27.49,305.88 30.87,305.41 C 32.21,305.22 35.81,304.42 38.88,303.63 C 41.95,302.83 45.28,301.98 46.28,301.74 C 48.01,301.32 51.89,299.90 56.92,297.86 C 58.17,297.35 59.43,296.93 59.73,296.93 C 60.81,296.93 72.94,290.61 78.34,287.23 C 81.72,285.11 91.27,277.80 94.18,275.11 C 102.68,267.24 111.38,257.94 115.53,252.28 C 116.46,251.01 118.26,248.58 119.51,246.89 C 124.90,239.62 128.80,233.90 130.78,230.39 C 132.27,227.75 135.89,221.80 137.13,219.98 C 137.72,219.11 139.12,216.58 140.23,214.36 C 141.35,212.15 143.02,209.03 143.94,207.43 C 144.86,205.82 146.50,202.66 147.57,200.39 C 148.66,198.13 149.79,195.83 150.09,195.30 C 152.04,191.87 156.28,183.32 156.28,182.81 C 156.29,182.48 156.76,181.43 157.34,180.50 C 158.53,178.61 162.34,170.56 163.36,167.80 C 163.71,166.83 165.33,163.38 166.93,160.14 C 168.53,156.90 170.18,153.14 170.58,151.77 C 170.99,150.40 171.64,148.80 172.02,148.21 C 172.66,147.23 174.91,141.98 177.11,136.29 C 177.59,135.05 178.43,133.09 178.97,131.92 C 179.51,130.76 180.54,128.39 181.26,126.65 C 181.98,124.91 182.97,122.62 183.47,121.56 C 183.98,120.49 185.19,117.65 186.16,115.25 C 187.13,112.85 188.78,109.07 189.82,106.85 C 190.85,104.63 191.70,102.61 191.70,102.36 C 191.70,100.65 208.58,66.68 212.28,60.95 C 213.77,58.64 214.98,56.68 214.98,56.58 C 214.98,55.64 222.56,45.52 226.62,41.03 C 230.87,36.35 240.96,28.97 245.37,27.33 C 246.13,27.04 248.04,26.32 249.60,25.71 C 253.40,24.25 267.48,24.00 270.29,25.35 C 271.22,25.80 272.93,26.42 274.09,26.71 C 282.84,28.97 295.21,40.41 304.92,55.24 C 309.23,61.81 320.91,84.11 325.94,95.37 C 328.89,101.97 330.83,106.67 334.59,116.41 C 335.55,118.92 336.64,121.44 337.01,121.99 C 337.60,122.90 338.48,125.68 339.64,130.35 C 339.85,131.19 340.15,132.07 340.30,132.33 C 343.10,136.86 343.51,165.96 340.89,174.44 C 340.56,175.50 340.02,177.36 339.69,178.56 C 338.91,181.42 336.35,188.76 335.76,189.83 C 335.51,190.30 335.30,190.90 335.30,191.17 C 335.30,192.81 329.68,202.74 324.40,210.44 C 314.44,224.96 294.08,238.81 273.93,244.79 C 262.74,248.11 259.72,248.47 241.42,248.71 C 207.65,249.15 210.79,248.97 207.20,250.66 C 202.48,252.89 197.03,258.70 197.03,261.51 C 197.03,261.84 196.29,264.00 195.37,266.30 C 192.49,273.61 187.23,287.34 185.89,291.11 C 184.44,295.17 183.22,297.69 182.48,298.15 C 182.21,298.31 181.99,298.75 181.99,299.12 C 181.99,300.99 175.10,309.92 171.60,312.58 C 162.95,319.17 167.67,318.80 91.40,318.91 C 26.14,319.01 26.14,319.01 25.24,317.85 Z M 361.01,317.84 C 349.60,314.80 344.81,310.59 337.77,297.37 C 336.40,294.81 334.94,291.55 334.52,290.13 C 334.10,288.71 333.46,287.09 333.11,286.54 C 332.23,285.18 327.05,271.28 327.05,270.29 C 327.05,269.85 326.75,269.06 326.37,268.52 C 326.00,267.99 325.17,266.04 324.53,264.17 C 320.13,251.36 316.63,249.15 300.73,249.15 C 294.66,249.15 289.70,248.98 289.70,248.78 C 289.70,248.58 290.09,248.42 290.57,248.42 C 291.05,248.42 291.65,248.25 291.90,248.03 C 292.15,247.82 293.24,247.35 294.30,246.99 C 296.25,246.34 308.98,240.22 310.80,239.06 C 328.57,227.74 340.52,215.14 347.47,200.39 C 350.67,193.60 351.31,192.06 352.31,188.75 C 352.91,186.75 353.58,184.89 353.79,184.61 C 354.37,183.83 355.61,177.42 355.97,173.30 C 356.15,171.25 356.36,169.26 356.44,168.86 C 356.51,168.45 356.59,167.96 356.61,167.77 C 356.68,167.01 357.61,167.44 357.61,168.22 C 357.61,168.67 359.28,172.44 361.32,176.59 C 363.36,180.74 365.98,186.10 367.14,188.51 C 368.31,190.91 369.47,193.20 369.73,193.60 C 369.99,194.00 371.22,196.50 372.45,199.14 C 373.69,201.79 376.32,206.78 378.29,210.22 C 380.26,213.66 381.87,216.59 381.87,216.72 C 381.87,216.86 382.59,218.09 383.48,219.47 C 386.90,224.81 387.60,225.95 388.62,227.96 C 389.65,229.99 390.37,231.11 395.94,239.45 C 400.09,245.66 408.05,256.03 411.97,260.31 C 421.73,270.97 426.93,275.79 437.42,283.89 C 441.44,286.99 456.91,295.49 461.54,297.14 C 462.68,297.54 465.15,298.45 467.01,299.16 C 470.65,300.53 478.66,302.78 484.96,304.22 C 487.10,304.71 489.80,305.33 490.98,305.59 C 494.53,306.40 496.05,308.36 496.28,312.38 C 496.68,319.47 504.00,318.77 429.52,318.72 C 369.16,318.69 363.92,318.62 361.01,317.84 Z M 286.89,191.22 C 293.53,187.83 294.30,182.92 289.91,171.97 C 288.73,169.01 287.75,166.32 287.75,165.99 C 287.75,165.67 287.21,164.20 286.54,162.75 C 285.87,161.29 285.33,159.97 285.33,159.82 C 285.33,159.67 285.03,158.85 284.67,158.01 C 283.31,154.87 280.96,148.11 280.96,147.36 C 280.96,146.92 280.44,145.42 279.81,144.01 C 279.18,142.60 278.21,140.14 277.66,138.54 C 277.11,136.94 276.02,134.09 275.24,132.21 C 274.46,130.33 273.32,127.10 272.71,125.03 C 272.09,122.97 271.41,121.16 271.18,121.02 C 270.96,120.89 270.77,120.22 270.77,119.54 C 270.77,118.86 270.47,117.73 270.10,117.02 C 269.02,114.97 266.89,109.49 266.89,108.77 C 266.89,108.12 266.07,106.09 264.54,102.94 C 263.03,99.85 259.64,99.21 257.12,101.54 C 256.06,102.53 253.64,108.09 251.80,113.79 C 251.45,114.86 250.88,116.08 250.54,116.50 C 250.20,116.92 249.91,117.65 249.91,118.11 C 249.91,119.13 246.49,129.29 244.35,134.66 C 243.49,136.79 242.63,139.19 242.43,139.98 C 242.24,140.78 241.55,142.59 240.90,144.00 C 240.25,145.42 239.73,146.84 239.73,147.17 C 239.73,147.50 239.27,148.97 238.70,150.43 C 238.14,151.89 236.92,155.27 235.99,157.94 C 235.06,160.61 234.11,163.02 233.89,163.29 C 233.67,163.56 233.05,165.31 232.52,167.17 C 231.99,169.03 230.98,171.97 230.27,173.71 C 229.56,175.45 228.56,178.15 228.04,179.73 C 227.52,181.31 226.92,182.83 226.70,183.13 C 225.80,184.29 223.61,192.26 224.10,192.56 C 224.37,192.73 238.10,192.76 254.60,192.63 C 284.60,192.39 284.60,192.39 286.89,191.22 Z"/>
</svg>
